<svg xmlns="http://www.w3.org/2000/svg" viewBox="0 0 256 256" role="img" aria-label="Defacto processor icon">
  <defs>
    <linearGradient id="bg" x1="0" y1="0" x2="1" y2="1">
      <stop offset="0%" stop-color="#0b1220"/>
      <stop offset="100%" stop-color="#0f172a"/>
    </linearGradient>
    <linearGradient id="chip" x1="0" y1="0" x2="1" y2="1">
      <stop offset="0%" stop-color="#1f2937"/>
      <stop offset="100%" stop-color="#0b1220"/>
    </linearGradient>
    <linearGradient id="core" x1="0" y1="0" x2="1" y2="1">
      <stop offset="0%" stop-color="#22d3ee"/>
      <stop offset="100%" stop-color="#14b8a6"/>
    </linearGradient>
    <linearGradient id="pin" x1="0" y1="0" x2="0" y2="1">
      <stop offset="0%" stop-color="#f8d477"/>
      <stop offset="100%" stop-color="#c1901f"/>
    </linearGradient>
  </defs>

  <rect x="8" y="8" width="240" height="240" rx="44" fill="url(#bg)"/>

  <g opacity="0.15" stroke="#94a3b8" stroke-width="1">
    <path d="M32 64h192"/>
    <path d="M32 96h192"/>
    <path d="M32 128h192"/>
    <path d="M32 160h192"/>
    <path d="M32 192h192"/>
    <path d="M64 32v192"/>
    <path d="M96 32v192"/>
    <path d="M128 32v192"/>
    <path d="M160 32v192"/>
    <path d="M192 32v192"/>
  </g>

  <rect x="52" y="52" width="152" height="152" rx="26" fill="url(#chip)" stroke="#1f2937" stroke-width="2"/>

  <g fill="url(#pin)">
    <rect x="30" y="72" width="16" height="10" rx="2"/>
    <rect x="30" y="95" width="16" height="10" rx="2"/>
    <rect x="30" y="118" width="16" height="10" rx="2"/>
    <rect x="30" y="141" width="16" height="10" rx="2"/>
    <rect x="30" y="164" width="16" height="10" rx="2"/>

    <rect x="210" y="72" width="16" height="10" rx="2"/>
    <rect x="210" y="95" width="16" height="10" rx="2"/>
    <rect x="210" y="118" width="16" height="10" rx="2"/>
    <rect x="210" y="141" width="16" height="10" rx="2"/>
    <rect x="210" y="164" width="16" height="10" rx="2"/>

    <rect x="72" y="30" width="10" height="16" rx="2"/>
    <rect x="95" y="30" width="10" height="16" rx="2"/>
    <rect x="118" y="30" width="10" height="16" rx="2"/>
    <rect x="141" y="30" width="10" height="16" rx="2"/>
    <rect x="164" y="30" width="10" height="16" rx="2"/>

    <rect x="72" y="210" width="10" height="16" rx="2"/>
    <rect x="95" y="210" width="10" height="16" rx="2"/>
    <rect x="118" y="210" width="10" height="16" rx="2"/>
    <rect x="141" y="210" width="10" height="16" rx="2"/>
    <rect x="164" y="210" width="10" height="16" rx="2"/>
  </g>

  <rect x="84" y="84" width="88" height="88" rx="14" fill="#0a1324" stroke="#0f172a" stroke-width="2"/>
  <rect x="96" y="96" width="64" height="64" rx="10" fill="url(#core)"/>

  <g stroke="#22d3ee" stroke-width="3" stroke-linecap="round" opacity="0.75">
    <path d="M128 84v-16"/>
    <path d="M128 188v-16"/>
    <path d="M84 128h-16"/>
    <path d="M188 128h-16"/>
  </g>

  <g stroke="#94a3b8" stroke-width="2" opacity="0.6">
    <path d="M108 108h40"/>
    <path d="M108 148h40"/>
    <path d="M108 108v40"/>
    <path d="M148 108v40"/>
  </g>
</svg>
